<svg width="120" height="106" viewBox="0 0 120 106" fill="none" xmlns="http://www.w3.org/2000/svg"><path fill-rule="evenodd" clip-rule="evenodd" d="M68.444 66.34l4.999.07v-8.104c9.998 0 7.064-1.037 10.978 3.95.882 1.04 2.548 3.117 3.137 4.157h5.783l-3.235-4.43c-1.087-1.316-2.548-3.116-3.43-4.57.195-.139.097-.139.39-.279 2.06-1.523 3.922-2.63 4.608-6.164.785-3.878-.882-6.643-2.745-8.519-2.156-2.154-4.998-2.494-8.919-2.494-3.039 0-8.723-.345-11.468.07l-.098 26.314zm5.097-21.677c2.843 0 6.274-.14 9.018 0 5.783.415 5.783 8.658-.196 8.864-2.844.07-5.977 0-8.92 0l.098-8.864zm24.897 21.68l21.464.068V61.84h-16.466v-6.302l13.527-.07.097-4.571h-13.624v-6.302h16.466l.098-4.573-21.563-.068v26.389zm-61.752-.003l4.901.07 2.454-5.886h12.94l2.448 5.887h4.898L53.742 40.018l-6.372-.07c-.293.347-10.29 24.865-10.686 26.393m13.724-21.748l4.801 11.36-9.311.068 4.51-11.428zm2.746-28.258c-2.058-1.248-4.71-5.196-6.568-7.412-.293.347-.293.555-.293 1.384-.098.625-.196 1.317-.098 1.871.391 1.593 5.292 5.056 5.684 5.611-2.549-.831-4.998-3.393-5.684-3.672l.196 3.053c.588.206 2.354.897 2.841 1.384l-2.253.485c-.098 3.325 6.959 5.957 7.35 9.627-2.45.14-3.233.07-5.39 2.425 2.548-.625 1.268-1.594 4.901-1.11l-.98.694c-3.823 1.732-8.529 4.086-12.546 4.571-1.087.138-3.824 1.316-4.313 2.009 6.175.485 9.6-3.533 16.664-5.61 2.941-.832 3.92-.347 6.862-.624 5.195-.346 10.487-4.503 17.055-5.332 1.37-.208 6.37-.208 7.063-.485-.882-.346-2.057-.346-3.137-.625-1.468-.276-.782-1.246-3.135-.623-2.548.623-3.43 1.178-6.372 1.316-6.763.347-12.644-.208-12.937-6.372-.098-1.524-.589-1.524-1.373-2.493-2.45-3.394-4.117-5.333-6.175-9.21L47.968 2.07c-.49.761-1.087 3.255-1.177 4.225-.196 2.285 5.88 8.797 6.372 10.043M.029 45.277h4.999v-5.31l-4.999-.013v5.323z" fill="#9A092B"/><path fill-rule="evenodd" clip-rule="evenodd" d="M63.74 24.3c-2.157-.832-3.823-2.356-4.019-4.988-.195-3.95.882-.692-2.354-6.644-1.176-2.009-1.96-3.878-2.942-6.025C53.936 5.535 52.27.41 52.071 0c-.59.623-1.268 2.562-1.569 3.393-.589 1.663.196 2.562.882 3.74a61.14 61.14 0 006.077 8.934c1.568 1.941.882.831 1.373 3.602.195 1.386.882 2.632 1.666 3.255.489.416 2.548 1.663 3.235 1.386" fill="#9A092B"/><path d="M119.859 68.476H0v26.77h119.859v-26.77z" fill="#9A092B"/><path d="M3.26 85.477V76.96h2.597l1.559 5.81 1.541-5.81h2.602v8.517H9.948v-6.705l-1.706 6.704h-1.67l-1.7-6.704v6.704H3.261zm10.023 0V76.96h6.37v1.44h-4.636v1.888h4.314v1.436h-4.314v2.317h4.8v1.436h-6.534zm8.011 0V76.96h1.735v3.352h3.4V76.96h1.734v8.517h-1.735v-3.725H23.03v3.725h-1.735zm8.616 0V76.96h1.734v8.517H29.91zm6.74 0V76.96h1.734v3.352h3.4V76.96h1.734v8.517h-1.735v-3.725h-3.399v3.725H36.65zm8.668 0V76.96h6.37v1.44h-4.636v1.888h4.314v1.436h-4.314v2.317h4.8v1.436h-6.534zM56.7 76.96h6.423v1.429h-4.689v1.975h2.32c.642 0 1.173.078 1.595.232.422.155.782.442 1.078.86.301.418.452.909.452 1.47 0 .577-.15 1.071-.452 1.481-.3.411-.644.692-1.031.843-.383.151-.93.227-1.641.227h-4.056V76.96zm1.734 7.087h1.688c.54 0 .918-.025 1.137-.075a1.08 1.08 0 00.568-.36.999.999 0 00.247-.686c0-.395-.143-.682-.428-.86-.282-.182-.764-.273-1.448-.273h-1.764v2.254zm14.116 1.43h-1.887l-.75-1.935h-3.435l-.71 1.934h-1.84l3.347-8.516h1.834l3.44 8.517zm-3.194-3.37l-1.184-3.16-1.16 3.16h2.344zM73.5 76.96h1.623v5.67l3.48-5.67h1.73v8.517h-1.624v-5.56l-3.475 5.56h-1.735V76.96zm4.453-2.121h.803c-.047.527-.234.941-.562 1.243-.325.299-.747.448-1.266.448-.52 0-.944-.15-1.272-.448-.324-.302-.51-.716-.557-1.243h.803c.028.275.125.484.293.627.168.14.412.21.733.21.32 0 .564-.07.732-.21.168-.143.266-.352.293-.627zm4.841 2.121h5.937v7.087h.756v3.289h-1.441v-1.86h-5.41v1.86h-1.442v-3.289h.727c.356-.728.59-1.572.703-2.533.114-.964.17-2.182.17-3.654v-.9zm1.653 1.429c0 2.587-.236 4.473-.709 5.658h3.264V78.39h-2.555zm5.473-1.429h1.94l2.004 4.42 1.711-4.42h1.811l-2.901 6.472c-.317.7-.639 1.235-.967 1.603-.328.364-.752.546-1.272.546-.512 0-.912-.033-1.201-.099v-1.278c.246.016.468.023.668.023.402 0 .69-.071.861-.215.176-.147.344-.46.504-.94L89.92 76.96zm13.737 0v3.625c.289-.023.508-.13.656-.32.149-.19.354-.623.616-1.301.344-.887.695-1.453 1.055-1.697.355-.24.947-.36 1.776-.36l.252-.006v1.273l-.252-.006c-.352 0-.61.044-.774.133a.978.978 0 00-.399.396c-.101.178-.252.544-.451 1.098-.105.294-.221.54-.346.737-.121.198-.338.384-.65.558.387.112.705.333.955.662.254.326.532.789.832 1.389l1.173 2.335h-2.04l-1.031-2.201a1.405 1.405 0 00-.1-.18 47.65 47.65 0 01-.211-.401c-.219-.407-.399-.666-.539-.779a.812.812 0 00-.522-.168v3.73h-1.694v-3.73a.832.832 0 00-.515.162c-.145.109-.325.37-.54.785a8.027 8.027 0 01-.216.4 2.261 2.261 0 00-.1.18l-1.032 2.203h-2.04l1.173-2.336c.29-.577.56-1.034.815-1.371a1.84 1.84 0 01.978-.68c-.312-.174-.531-.358-.656-.552a4.209 4.209 0 01-.346-.743c-.195-.543-.344-.905-.445-1.087a.959.959 0 00-.399-.406c-.164-.09-.433-.134-.808-.134a6.3 6.3 0 00-.223.006V76.9l.252.006c.84 0 1.438.122 1.793.366.352.248.698.812 1.038 1.69.265.683.47 1.118.615 1.308.148.186.367.29.656.314V76.96h1.694zm5.456 8.517V76.96h6.371v1.44h-4.636v1.888h4.314v1.436h-4.314v2.317h4.8v1.436h-6.535z" fill="#fff"/><path fill-rule="evenodd" clip-rule="evenodd" d="M34.04 63.362l-3.235-3.461c-.685.344-1.078.83-1.96 1.314-6.076 3.052-13.33-1.246-13.33-8.033-.098-4.018 2.45-6.858 5.097-8.172a9.007 9.007 0 015.68-.694 7.93 7.93 0 012.354.762c.882.484 1.47 1.107 2.155 1.386.687-.625 2.942-2.91 3.235-3.672-2.057-1.524-3.43-2.632-6.763-3.325-8.036-1.593-16.76 4.503-16.76 13.715 0 8.934 8.233 15.306 16.662 13.714 2.451-.485 5.881-2.155 6.861-3.534M.029 66.41h4.999V47.14l-4.999-.05v19.32z" fill="#9A092B"/><path d="M65.233 100.055v.539h.653v3.909h.638v-3.918h.7v-.539h-.696v-.468c0-.447.117-.562.445-.562.074 0 .167.009.252.016v-.539a4.3 4.3 0 00-.319-.016c-.906 0-1.016.44-1.016 1.174v.388l-.657.016zm-2.123.417c.672 0 .94.506.94 1.855 0 1.046-.181 1.754-.94 1.754-.759 0-.94-.708-.94-1.754.005-1.349.266-1.855.945-1.855h-.005zm0-.539c-1.107 0-1.601.841-1.601 2.322 0 1.82.637 2.352 1.6 2.352.964 0 1.604-.539 1.604-2.345.005-1.483-.491-2.323-1.598-2.323l-.005-.006zm-7.466.117l1.438 4.521c-.15.508-.335.898-.788.898-.162 0-.322-.035-.469-.101v.558c.146.049.299.074.453.074.906 0 1.123-.673 1.375-1.488l1.392-4.466h-.662l-.99 3.543h-.016l-1.057-3.543-.676.004zm-1.518 0h-.637v4.442h.637v-2.693c0-.718.377-1.198 1.033-1.198.09.001.18.009.268.025v-.616a1.828 1.828 0 00-.181-.016c-.562 0-.88.257-1.114.781l-.006-.725zm-2.132-1.205h-.635v1.205h-.616v.539h.621v3.176c0 .673.276.732.661.732h.698v-.538h-.428c-.26 0-.295-.092-.295-.349v-3.025h.735v-.539h-.739l-.002-1.2zm-1.827 2.395c0-.849-.504-1.307-1.351-1.307-.772 0-1.268.474-1.268 1.241 0 .706.395.996 1.087 1.287.462.192 1.023.3 1.023.866 0 .565-.335.748-.855.748-.58 0-.755-.307-.755-.881h-.605c0 .957.362 1.413 1.393 1.413.947 0 1.485-.474 1.485-1.322 0-.815-.663-1.097-1.326-1.33-.478-.167-.806-.325-.806-.806 0-.401.181-.682.638-.682.512 0 .713.249.713.773h.627zM46.5 99.303v-.799h-.637v.8h.637zm0 .747h-.637v4.442h.637v-4.442zm-4.035 0h-.638v4.442h.638v-3.063a.888.888 0 01.246-.677.9.9 0 01.668-.28c.52 0 .672.316.672.774v3.251h.638v-3.427c0-.781-.437-1.131-1.109-1.131a1.326 1.326 0 00-1.107.608h-.008v-.497zm-1.812-.747v-.799h-.637v.8h.637zm0 .747h-.637v4.442h.637v-4.442zm-6.257 0h-.638v4.442h.638v-3.009c0-.69.453-1.015.905-1.015.53 0 .689.307.689.774v3.252h.637v-3.011c0-.69.437-1.015.915-1.015.543 0 .67.332.67.832v3.194h.637v-3.424c0-.806-.469-1.131-1.106-1.131a1.379 1.379 0 00-1.174.675c-.16-.499-.57-.675-1.048-.675a1.346 1.346 0 00-1.109.608l-.016-.497zm-4.731 2.12h-1.594l.797-3.183h.016l.78 3.183zm-2.936 2.322h.737l.455-1.717h1.903l.478 1.722h.74l-1.696-5.987h-.89l-1.727 5.982z" fill="#1A1A18"/><path d="M117.305 101.253c0-.515.181-.781.654-.781.512 0 .679.179.679.689 0 .225 0 .449-.167.525-.067.034-.503.224-.797.332-.78.3-1.115.583-1.115 1.373s.362 1.221 1.148 1.221a1.126 1.126 0 00.991-.718h.016c.101.6.303.648.688.648a.638.638 0 00.259-.048v-.467a.662.662 0 01-.141.016c-.168 0-.244-.149-.244-.359v-2.614c0-.598-.352-1.131-1.25-1.131-.839 0-1.292.4-1.292 1.314h.571zm1.333.824v1.077c0 .458-.159.898-.821.898-.429 0-.595-.291-.595-.68-.008-.862.755-.913 1.416-1.295zm-3.003-2.769v-.799h-.638v.8h.638zm0 .747h-.638v4.442h.638v-4.442zm-1.719 1.191c0-.85-.503-1.307-1.351-1.307-.772 0-1.268.474-1.268 1.24 0 .706.395.997 1.087 1.288.462.192 1.023.299 1.023.865 0 .566-.335.749-.855.749-.579 0-.755-.307-.755-.882h-.605c0 .957.362 1.413 1.393 1.413.949 0 1.485-.474 1.485-1.321 0-.815-.663-1.097-1.326-1.331-.478-.167-.804-.325-.804-.806 0-.4.181-.682.638-.682.51 0 .711.249.711.774h.627zm-5.636 0c0-.516.181-.781.654-.781.51 0 .679.179.679.689 0 .225 0 .449-.169.524-.067.035-.501.225-.797.333-.779.299-1.115.583-1.115 1.373s.362 1.221 1.15 1.221a1.129 1.129 0 00.989-.718h.018c.099.599.3.648.686.648a.648.648 0 00.261-.049v-.466a.764.764 0 01-.143.016c-.167 0-.243-.149-.243-.359v-2.607c0-.598-.353-1.131-1.249-1.131-.839 0-1.292.4-1.292 1.314l.571-.007zm1.333.824v1.077c0 .458-.16.898-.823.898-.427 0-.595-.291-.595-.681 0-.854.755-.905 1.412-1.287l.006-.007zm-3.804-2.022h-.637v4.442h.632v-2.693c0-.718.378-1.198 1.032-1.198.09.001.18.01.268.025v-.615a1.583 1.583 0 00-.181-.016c-.561 0-.88.256-1.116.781l.002-.726zm-4.604 0v3.426c0 .783.411 1.14 1.087 1.14a1.184 1.184 0 001.058-.707h.016v.583h.627v-4.435h-.638v2.853c0 .923-.504 1.182-.947 1.182-.444 0-.571-.209-.571-.584v-3.451l-.632-.007zm-4.019-1.546v5.988h3.037v-.6h-2.37v-2.228h2.206v-.599h-2.206v-1.956h2.354v-.597l-3.021-.008zm-5.452 1.546h-.637v4.442h.637v-3.061a.89.89 0 01.247-.677.9.9 0 01.668-.28c.52 0 .67.316.67.774v3.251h.638v-3.427c0-.781-.437-1.131-1.107-1.131a1.336 1.336 0 00-1.108.608l-.008-.499zm-3.247.417c.672 0 .94.506.94 1.854 0 1.047-.181 1.755-.94 1.755-.76 0-.938-.708-.938-1.755-.006-1.341.253-1.847.932-1.847l.006-.007zm0-.539c-1.107 0-1.601.84-1.601 2.322 0 1.82.637 2.352 1.6 2.352.964 0 1.604-.539 1.604-2.345-.006-1.476-.5-2.316-1.609-2.316l.006-.013zm-2.607-.618v-.799h-.637v.8h.637zm0 .747h-.637v4.442h.637v-4.442zm-1.718 1.191c0-.85-.504-1.307-1.352-1.307-.771 0-1.267.474-1.267 1.24 0 .706.393.997 1.086 1.288.462.192 1.024.299 1.024.865 0 .566-.336.749-.857.749-.578 0-.754-.307-.754-.882h-.605c0 .957.363 1.413 1.393 1.413.948 0 1.486-.474 1.486-1.321 0-.815-.663-1.097-1.326-1.331-.478-.167-.806-.325-.806-.806 0-.4.18-.682.637-.682.513 0 .714.249.714.774h.627zm-3.574 0c0-.85-.503-1.307-1.351-1.307-.772 0-1.268.474-1.268 1.24 0 .706.393.997 1.087 1.288.462.192 1.023.299 1.023.865 0 .566-.335.749-.857.749-.577 0-.753-.307-.753-.882h-.605c0 .957.362 1.413 1.393 1.413.947 0 1.485-.474 1.485-1.321 0-.815-.663-1.097-1.326-1.331-.478-.167-.806-.325-.806-.806 0-.4.181-.682.638-.682.512 0 .713.249.713.774h.627zm-3.673-1.938v-.799h-.634v.8h.634zm0 .747h-.634v4.442h.637l-.003-4.442zm-6.895-1.546v5.988h.67v-4.916c0-.256-.026-.456-.026-.772h.019c.074.323.124.523.18.731l1.269 4.957h.796l1.268-4.89c.058-.241.116-.45.201-.798h.026c0 .225-.026.5-.026.756v4.932h.67V98.51h-1.182l-1.2 4.668a6.295 6.295 0 00-.15.897h-.018a5.978 5.978 0 00-.125-.881l-1.182-4.668-1.19-.016z" fill="#821524"/></svg>