<svg width="31" height="25" viewBox="0 0 31 25" fill="none" xmlns="http://www.w3.org/2000/svg"><path fill-rule="evenodd" clip-rule="evenodd" d="M11.16 10.95c-1.339-.837-3.064-3.483-4.273-4.968-.19.232-.19.371-.19.927-.064.42-.128.883-.064 1.254.254 1.068 3.443 3.39 3.698 3.761-1.659-.557-3.252-2.274-3.698-2.46l.127 2.045c.383.139 1.532.602 1.849.928l-1.466.325c-.064 2.229 4.528 3.993 4.782 6.453-1.594.094-2.104.047-3.507 1.626 1.658-.419.825-1.068 3.189-.743l-.638.464c-2.487 1.162-5.55 2.74-8.163 3.064-.707.093-2.488.883-2.806 1.347 4.017.325 6.246-2.368 10.842-3.761 1.914-.557 2.551-.232 4.465-.418 3.38-.232 6.824-3.018 11.097-3.574.892-.14 4.145-.14 4.596-.325-.574-.232-1.339-.232-2.041-.419-.956-.185-.51-.835-2.04-.417-1.658.417-2.232.79-4.146.882-4.4.232-8.227-.14-8.418-4.271-.064-1.022-.383-1.022-.893-1.672-1.595-2.275-2.679-3.575-4.018-6.174L7.786 1.388c-.32.51-.707 2.182-.766 2.832-.127 1.532 3.827 5.897 4.146 6.732" fill="#fff"/><path fill-rule="evenodd" clip-rule="evenodd" d="M18.049 16.288c-1.404-.557-2.488-1.579-2.616-3.343-.127-2.648.574-.463-1.532-4.453-.764-1.347-1.275-2.6-1.913-4.039C11.668 3.71 10.585.274 10.456 0c-.383.418-.825 1.717-1.021 2.275-.383 1.114.127 1.717.574 2.507a41.069 41.069 0 003.954 5.988c1.02 1.301.574.558.893 2.415.127.929.574 1.764 1.084 2.182.318.279 1.658 1.114 2.105.929" fill="#fff"/></svg>