<svg width="61" height="60" viewBox="0 0 61 60" fill="none" xmlns="http://www.w3.org/2000/svg"><circle cx="30.5" cy="30" r="29.5" fill="#fff" stroke="#9A092B"/><mask id="a" fill="#fff"><path fill-rule="evenodd" clip-rule="evenodd" d="M25.29 25.458c-1.607-1.017-3.678-4.233-5.13-6.037-.229.282-.229.451-.229 1.127-.076.51-.153 1.072-.076 1.524.305 1.297 4.134 4.118 4.44 4.57-1.991-.677-3.904-2.764-4.44-2.99l.152 2.486c.46.168 1.84.731 2.22 1.127l-1.76.395c-.076 2.709 5.436 4.853 5.741 7.842-1.914.114-2.525.057-4.21 1.976 1.99-.509.99-1.299 3.828-.904l-.765.565c-2.987 1.411-6.662 3.328-9.8 3.723-.849.113-2.987 1.072-3.369 1.637 4.823.395 7.499-2.878 13.016-4.57 2.298-.678 3.063-.283 5.36-.508 4.058-.282 8.192-3.668 13.322-4.344 1.071-.17 4.976-.17 5.518-.395-.69-.282-1.608-.282-2.45-.508-1.148-.226-.612-1.015-2.45-.508-1.99.508-2.68.96-4.977 1.072-5.282.282-9.876-.17-10.105-5.19-.077-1.242-.46-1.242-1.073-2.032-1.914-2.764-3.216-4.343-4.823-7.502l-1.99-4.176c-.384.62-.85 2.652-.92 3.441-.153 1.862 4.594 7.167 4.977 8.182"/><path fill-rule="evenodd" clip-rule="evenodd" d="M33.56 31.945c-1.686-.677-2.987-1.918-3.14-4.062-.153-3.218.69-.563-1.84-5.412-.917-1.636-1.53-3.159-2.297-4.908-.382-.902-1.683-5.078-1.839-5.411-.46.507-.99 2.087-1.225 2.764-.46 1.354.153 2.087.689 3.046a49.96 49.96 0 004.746 7.278c1.226 1.58.69.677 1.073 2.934.153 1.129.689 2.144 1.301 2.651.382.34 1.991 1.354 2.527 1.13"/></mask><path fill-rule="evenodd" clip-rule="evenodd" d="M25.29 25.458c-1.607-1.017-3.678-4.233-5.13-6.037-.229.282-.229.451-.229 1.127-.076.51-.153 1.072-.076 1.524.305 1.297 4.134 4.118 4.44 4.57-1.991-.677-3.904-2.764-4.44-2.99l.152 2.486c.46.168 1.84.731 2.22 1.127l-1.76.395c-.076 2.709 5.436 4.853 5.741 7.842-1.914.114-2.525.057-4.21 1.976 1.99-.509.99-1.299 3.828-.904l-.765.565c-2.987 1.411-6.662 3.328-9.8 3.723-.849.113-2.987 1.072-3.369 1.637 4.823.395 7.499-2.878 13.016-4.57 2.298-.678 3.063-.283 5.36-.508 4.058-.282 8.192-3.668 13.322-4.344 1.071-.17 4.976-.17 5.518-.395-.69-.282-1.608-.282-2.45-.508-1.148-.226-.612-1.015-2.45-.508-1.99.508-2.68.96-4.977 1.072-5.282.282-9.876-.17-10.105-5.19-.077-1.242-.46-1.242-1.073-2.032-1.914-2.764-3.216-4.343-4.823-7.502l-1.99-4.176c-.384.62-.85 2.652-.92 3.441-.153 1.862 4.594 7.167 4.977 8.182" fill="#9A092B"/><path fill-rule="evenodd" clip-rule="evenodd" d="M33.56 31.945c-1.686-.677-2.987-1.918-3.14-4.062-.153-3.218.69-.563-1.84-5.412-.917-1.636-1.53-3.159-2.297-4.908-.382-.902-1.683-5.078-1.839-5.411-.46.507-.99 2.087-1.225 2.764-.46 1.354.153 2.087.689 3.046a49.96 49.96 0 004.746 7.278c1.226 1.58.69.677 1.073 2.934.153 1.129.689 2.144 1.301 2.651.382.34 1.991 1.354 2.527 1.13" fill="#9A092B"/><path d="M20.16 19.42l.78-.626-.776-.965-.78.961.776.63zm-.229 1.128l.989.149.011-.074v-.075h-1zm-.076 1.524l-.986.167.005.031.007.031.974-.229zm4.44 4.57l-.323.947 2.818.959-1.668-2.466-.828.56zm-4.44-2.99l.39-.922-1.488-.628.1 1.61.998-.06zm.152 2.486l-.998.061.04.653.615.225.343-.94zm2.22 1.127l.22.976 1.73-.388-1.229-1.28-.72.692zm-1.76.395l-.219-.976-.758.17-.022.778 1 .028zm5.741 7.842l.06.998 1.041-.062-.106-1.038-.995.102zm-4.21 1.976l-.751-.66-2.134 2.43 3.133-.801-.248-.969zm3.828-.904l.594.805 1.975-1.457-2.43-.338-.139.99zm-.765.565l.427.904.088-.042.078-.057-.593-.805zm-9.8 3.723l-.125-.992-.007.001.132.991zM11.892 42.5l-.828-.56-.959 1.417 1.706.14.081-.997zm13.016-4.57l-.283-.96-.01.003.293.956zm5.36-.508l-.069-.998-.014.001-.014.002.098.995zm13.322-4.344l.13.992.014-.002.012-.002-.156-.988zm5.518-.395l.383.924 2.238-.93-2.242-.919-.38.925zm-2.45-.508l.259-.966-.033-.01-.034-.006-.193.982zm-2.45-.508l.247.97.01-.003.01-.003-.267-.964zm-4.977 1.072l-.049-.999h-.004l.053 1zm-10.105-5.19l.998-.046v-.016l-.998.062zm-1.073-2.032l-.822.57.015.022.017.021.79-.613zm-4.823-7.502l-.902.43.005.012.006.011.891-.453zm-1.99-4.176l.902-.43-.789-1.655-.964 1.56.85.525zm-.92 3.441l-.996-.089v.008l.996.081zm10.1 10.604l-.999.047v.012l.002.012.997-.071zm-1.84-5.412l.888-.462-.008-.014-.007-.013-.872.49zm-2.297-4.908l-.92.39.005.012.915-.402zm-1.839-5.411l.906-.423-.636-1.364-1.01 1.115.74.672zm-1.225 2.764l-.945-.328-.002.007.947.321zm.689 3.046l.882-.471-.005-.008-.004-.009-.873.488zm4.746 7.278l.79-.613-.003-.004-.787.617zm1.073 2.934l.99-.134-.002-.017-.002-.017-.986.168zm1.301 2.651l.665-.747-.013-.012-.014-.01-.638.77zm-5.203-6.212c-.635-.402-1.457-1.32-2.369-2.492-.441-.567-.879-1.16-1.305-1.734a53.357 53.357 0 00-1.212-1.593l-1.558 1.253c.348.433.738.957 1.164 1.53.42.569.874 1.182 1.333 1.772.888 1.14 1.905 2.339 2.878 2.954l1.069-1.69zm-6.441-5.823c-.2.245-.345.511-.41.873-.047.27-.043.589-.043.885h2c0-.174 0-.294.003-.39.003-.097.008-.135.01-.147 0-.003-.003.02-.017.048-.012.023-.017.025.01-.008l-1.553-1.26zm-.442 1.61c-.071.475-.181 1.201-.073 1.839l1.972-.334c-.045-.266-.003-.666.079-1.209l-1.978-.296zm-.06 1.901c.077.33.243.63.406.875.17.256.38.513.601.761.444.495.993 1.013 1.519 1.483.527.471 1.057.918 1.456 1.26.203.174.368.317.49.428.155.142.152.155.112.095l1.656-1.12a2.825 2.825 0 00-.42-.452 23.988 23.988 0 00-.537-.47c-.414-.355-.918-.78-1.424-1.232a18.007 18.007 0 01-1.362-1.326 4.937 4.937 0 01-.426-.535c-.106-.16-.126-.23-.125-.225l-1.947.458zm5.734 3.395c-.821-.28-1.684-.876-2.463-1.5-.387-.308-.715-.593-1.018-.845-.145-.12-.29-.238-.42-.336a2.365 2.365 0 00-.47-.285l-.78 1.843c-.052-.023-.046-.03.055.046.085.063.194.151.335.269.268.223.643.546 1.05.871.809.647 1.898 1.432 3.067 1.83l.644-1.893zm-5.76-1.983l.153 2.486 1.997-.123-.153-2.486-1.997.123zm.808 3.364c.206.075.638.247 1.058.444.21.099.403.197.558.288.173.101.23.154.226.149l1.442-1.385a3.09 3.09 0 00-.659-.49 9.207 9.207 0 00-.717-.372c-.48-.226-.967-.42-1.221-.512l-.687 1.878zm2.344-.787l-1.76.395.438 1.951 1.76-.395-.438-1.951zm-2.54 1.342c-.03 1.03.475 1.905 1.045 2.606.572.704 1.33 1.375 2.018 1.986.717.637 1.373 1.22 1.876 1.817.503.598.76 1.105.806 1.563l1.99-.203c-.106-1.038-.653-1.92-1.266-2.648-.615-.73-1.39-1.413-2.079-2.025-.718-.638-1.343-1.198-1.793-1.75-.452-.557-.607-.966-.598-1.29l-2-.056zm6.68 6.872c-.877.052-1.71.066-2.5.38-.829.33-1.531.943-2.401 1.934l1.502 1.32c.815-.928 1.261-1.245 1.638-1.395.415-.166.844-.18 1.88-.242l-.118-1.997zm-3.902 3.943c1.183-.303 1.686-.796 1.862-.902.036-.021.187-.174 1.58.02l.276-1.981c-1.445-.201-2.212-.157-2.883.245-.53.318-.523.474-1.33.68l.495 1.938zm2.987-2.678l-.766.565 1.188 1.61.765-.565-1.187-1.61zm-.6.466c-1.52.718-3.145 1.53-4.801 2.224-1.657.694-3.261 1.23-4.696 1.411l.25 1.985c1.703-.215 3.505-.834 5.218-1.55 1.712-.718 3.418-1.57 4.884-2.262l-.854-1.808zM15.13 39.87c-.584.078-1.447.402-2.154.736-.37.174-.74.37-1.053.572-.276.176-.638.434-.858.76l1.657 1.12c-.03.043.019-.03.278-.196.222-.141.511-.297.829-.447.67-.316 1.3-.527 1.564-.562l-.263-1.983zm-3.318 3.624c2.684.22 4.758-.595 6.776-1.604 2.04-1.02 3.961-2.193 6.614-3.006l-.586-1.913c-2.864.879-5.04 2.189-6.922 3.13-1.905.952-3.58 1.575-5.719 1.4l-.163 1.993zm13.38-4.607c1.05-.31 1.725-.37 2.416-.383.695-.013 1.558.029 2.76-.089l-.196-1.99c-1.097.107-1.765.064-2.601.08-.841.015-1.697.096-2.945.463l.566 1.919zm5.147-.47c2.24-.155 4.46-1.162 6.594-2.107 2.198-.973 4.387-1.926 6.789-2.242l-.262-1.983c-2.728.36-5.17 1.437-7.337 2.396-2.229.987-4.105 1.815-5.923 1.941l.14 1.996zm13.408-4.353c.461-.073 1.614-.114 2.843-.165a53.891 53.891 0 001.653-.087c.238-.018.462-.04.652-.065.155-.021.395-.058.597-.142l-.767-1.847c.066-.027.066-.015-.1.007-.132.018-.31.036-.531.052-.44.033-.998.059-1.588.084-1.127.047-2.461.091-3.071.188l.313 1.975zm5.74-2.308c-.468-.192-.981-.276-1.396-.339-.455-.068-.82-.115-1.173-.21l-.52 1.931c.492.132 1.006.198 1.394.257.427.065.718.122.938.212l.758-1.85zm-2.636-.565c-.308-.06-.1-.038-.597-.375-.622-.421-1.33-.386-2.31-.115l.532 1.928c.422-.117.622-.133.703-.13.03 0 .027.004.002-.005a.248.248 0 01-.034-.013l-.011-.007-.005-.002c.008.005.02.014.085.07.054.045.147.125.26.204.253.177.564.324.99.408l.385-1.963zm-2.889-.495c-2.155.55-2.614.936-4.779 1.042l.098 1.998c2.43-.12 3.35-.637 5.175-1.102l-.494-1.938zm-4.783 1.043c-2.645.14-4.919.079-6.536-.542-.784-.3-1.37-.717-1.777-1.273-.406-.554-.69-1.323-.74-2.423l-1.998.091c.064 1.41.44 2.581 1.125 3.515.684.932 1.619 1.552 2.673 1.957 2.057.79 4.722.813 7.36.672l-.107-1.998zm-9.054-4.254c-.046-.734-.193-1.248-.52-1.706-.14-.193-.299-.358-.409-.475a5.199 5.199 0 01-.352-.402l-1.58 1.226c.185.238.352.416.479.55.136.144.192.205.236.266.036.05.118.157.15.664l1.996-.123zm-1.249-2.54c-1.947-2.812-3.186-4.306-4.753-7.386l-1.783.907c1.647 3.238 3.011 4.903 4.892 7.619l1.644-1.14zm-4.742-7.363l-1.99-4.175-1.806.86 1.99 4.176 1.806-.86zm-3.744-4.27c-.158.255-.288.587-.392.891-.11.323-.213.686-.304 1.046-.178.705-.327 1.469-.369 1.94l1.992.179c.029-.319.148-.966.316-1.628a12 12 0 01.259-.893 2.83 2.83 0 01.2-.484l-1.702-1.052zm-1.066 3.885c-.036.439.074.882.21 1.262.14.395.342.811.572 1.225.459.828 1.078 1.736 1.692 2.587.612.85 1.252 1.688 1.736 2.34.247.333.452.616.606.842.076.113.134.204.175.274.045.077.053.1.048.086l1.87-.707c-.094-.25-.276-.535-.436-.773-.18-.265-.407-.578-.657-.914-.509-.686-1.117-1.48-1.72-2.317-.602-.835-1.165-1.665-1.565-2.387a6.499 6.499 0 01-.438-.928c-.096-.27-.101-.4-.1-.427l-1.992-.163zm14.61 13.82c-1.434-.576-2.397-1.544-2.515-3.207l-1.995.143c.187 2.625 1.827 4.14 3.764 4.92l.745-1.857zm-2.514-3.183c-.036-.76-.013-1.16.003-1.41.014-.224.057-.57-.09-.977-.102-.281-.314-.624-.553-1.038a60.858 60.858 0 01-1.311-2.401l-1.774.925a62.715 62.715 0 001.353 2.476c.146.253.241.413.313.543.035.061.057.104.072.135l.019.04c-.022-.061-.004-.165-.025.17-.02.308-.045.783-.005 1.632l1.998-.095zm-1.966-5.853c-.887-1.581-1.473-3.038-2.254-4.82l-1.832.803c.753 1.716 1.392 3.304 2.342 4.996l1.744-.979zm-2.249-4.809c-.17-.401-.574-1.616-.975-2.84-.195-.596-.386-1.182-.536-1.636-.137-.411-.272-.816-.343-.968l-1.812.846c-.007-.016.012.03.07.196.048.14.112.33.186.555.15.45.337 1.027.534 1.63.385 1.172.822 2.496 1.034 2.997l1.842-.78zm-3.5-5.693a3.621 3.621 0 00-.502.766c-.137.267-.266.563-.382.85-.231.571-.432 1.163-.546 1.492l1.89.656c.12-.348.302-.885.51-1.399.104-.257.208-.493.307-.686.107-.208.179-.308.204-.336l-1.482-1.343zm-1.432 3.114c-.302.89-.261 1.64-.027 2.319.2.585.58 1.162.79 1.537l1.746-.976c-.326-.583-.522-.852-.646-1.212-.091-.266-.127-.56.03-1.024l-1.893-.643zm.754 3.84a51.08 51.08 0 004.842 7.423l1.573-1.234a48.978 48.978 0 01-4.651-7.132l-1.764.943zm4.838 7.418c.332.429.495.626.617.791.104.14.074.123.058.066-.002-.01.002-.001.008.065.008.076.013.15.027.3.024.279.066.672.167 1.267l1.972-.335a13.31 13.31 0 01-.147-1.109c-.016-.183-.03-.464-.093-.699a2.128 2.128 0 00-.384-.745c-.134-.181-.364-.464-.644-.826l-1.581 1.225zm.872 2.456c.178 1.315.805 2.583 1.654 3.287l1.276-1.54c-.375-.31-.82-1.072-.948-2.015l-1.982.268zm1.628 3.265c.274.243.849.625 1.41.916.286.149.612.296.93.39.159.047.342.09.533.103.183.013.44.005.705-.106l-.774-1.844a.591.591 0 01.212-.045c.001 0-.007 0-.027-.005a.91.91 0 01-.081-.02 3.53 3.53 0 01-.578-.248 6.464 6.464 0 01-1.002-.636l-1.328 1.495z" fill="#9A092B" mask="url(#a)"/></svg>