<svg width="193" height="170" viewBox="0 0 193 170" fill="none" xmlns="http://www.w3.org/2000/svg"><path fill-rule="evenodd" clip-rule="evenodd" d="M110.081 106.396l8.04.112V93.51c16.079 0 11.36-1.664 17.655 6.335 1.419 1.667 4.099 4.999 5.046 6.666h9.301l-5.203-7.104c-1.747-2.11-4.098-4.998-5.517-7.33.315-.222.157-.222.629-.447 3.312-2.442 6.307-4.218 7.411-9.885 1.261-6.22-1.419-10.654-4.416-13.663-3.467-3.456-8.037-4-14.344-4-4.888 0-14.029-.553-18.445.113l-.157 42.201zm8.197-34.767c4.573 0 10.091-.224 14.504 0 9.301.665 9.301 13.885-.315 14.216-4.573.112-9.613 0-14.346 0l.157-14.216zm40.042 34.77l34.523.109v-7.331H166.36V89.07l21.755-.112.157-7.331H166.36V71.52h26.483l.157-7.334-34.68-.11V106.4zm-99.316-.003l7.882.112 3.947-9.442h20.811l3.938 9.442h7.877L86.436 64.18l-10.249-.112c-.471.556-16.551 39.877-17.186 42.328m22.072-34.879l7.722 18.218-14.976.11 7.254-18.328zm4.416-45.32c-3.31-2.001-7.574-8.333-10.563-11.886-.472.556-.472.89-.472 2.22-.157 1.002-.314 2.11-.157 3 .63 2.554 8.512 8.109 9.141 8.999-4.099-1.334-8.037-5.443-9.141-5.889l.315 4.895c.946.331 3.786 1.44 4.57 2.22l-3.624.778c-.157 5.333 11.192 9.554 11.821 15.44-3.941.224-5.2.112-8.669 3.89 4.099-1.003 2.04-2.557 7.883-1.78l-1.576 1.111c-6.15 2.78-13.718 6.554-20.179 7.331-1.748.222-6.15 2.111-6.936 3.223 9.93.777 15.44-5.667 26.8-8.999 4.731-1.333 6.307-.555 11.038-.999 8.354-.556 16.866-7.221 27.429-8.552 2.205-.334 10.245-.334 11.361-.777-1.419-.556-3.31-.556-5.046-1.002-2.362-.444-1.258-1.999-5.042-1-4.099 1-5.517 1.89-10.248 2.111-10.878.556-20.336-.334-20.808-10.219-.157-2.445-.947-2.445-2.208-4-3.941-5.442-6.621-8.552-9.93-14.771l-4.1-8.221c-.789 1.22-1.747 5.22-1.893 6.775-.314 3.666 9.459 14.11 10.248 16.108M.047 72.614h8.04V64.1l-8.04-.023v8.537z" fill="#fff"/><path fill-rule="evenodd" clip-rule="evenodd" d="M102.515 38.97c-3.469-1.333-6.149-3.777-6.464-7.999-.314-6.334 1.419-1.108-3.787-10.654-1.89-3.222-3.151-6.22-4.73-9.663C86.747 8.877 84.067.657 83.747 0c-.947 1-2.04 4.109-2.523 5.442-.947 2.667.315 4.11 1.419 5.998a98.062 98.062 0 009.773 14.328c2.523 3.113 1.419 1.333 2.208 5.776.315 2.223 1.419 4.222 2.68 5.22.787.669 4.099 2.667 5.203 2.224" fill="#fff"/><path d="M192.773 109.819H0v42.933h192.773v-42.933z" fill="#fff"/><path d="M5.244 137.085v-13.659H9.42l2.507 9.317 2.48-9.317h4.184v13.659H16v-10.752l-2.743 10.752H10.57l-2.734-10.752v10.752H5.244zm16.119 0v-13.659h10.246v2.31h-7.456v3.029h6.937v2.301h-6.937v3.718h7.72v2.301h-10.51zm12.885 0v-13.659h2.79v5.376h5.467v-5.376h2.79v13.659h-2.79v-5.972h-5.467v5.972h-2.79zm13.857 0v-13.659h2.79v13.659h-2.79zm10.839 0v-13.659h2.79v5.376h5.468v-5.376h2.79v13.659h-2.79v-5.972h-5.467v5.972h-2.79zm13.942 0v-13.659h10.246v2.31h-7.456v3.029h6.938v2.301h-6.938v3.718h7.72v2.301h-10.51zm18.305-13.659h10.331v2.292h-7.54v3.168h3.732c1.03 0 1.885.124 2.564.372.679.249 1.257.708 1.734 1.379.484.671.726 1.457.726 2.358 0 .925-.242 1.717-.726 2.376-.483.658-1.036 1.108-1.659 1.351-.615.242-1.495.363-2.639.363h-6.523v-13.659zm2.79 11.367h2.715c.867 0 1.477-.04 1.829-.121.352-.087.656-.28.914-.578.264-.298.396-.665.396-1.099 0-.634-.23-1.094-.688-1.379-.453-.292-1.229-.438-2.328-.438H93.98v3.615zm22.703 2.292h-3.035l-1.207-3.103h-5.523l-1.141 3.103h-2.96l5.383-13.659h2.95l5.533 13.659zm-5.137-5.404l-1.904-5.069-1.867 5.069h3.771zm6.664-8.255h2.611v9.093l5.599-9.093h2.781v13.659h-2.611v-8.917l-5.59 8.917h-2.79v-13.659zm7.164-3.401h1.291c-.075.845-.377 1.509-.904 1.994-.522.478-1.201.717-2.037.717-.835 0-1.517-.239-2.045-.717-.522-.485-.82-1.149-.895-1.994h1.291c.044.441.201.776.471 1.006.27.224.663.335 1.178.335.516 0 .909-.111 1.179-.335.27-.23.427-.565.471-1.006zm7.786 3.401h9.549v11.367h1.216v5.274h-2.319v-2.982h-8.701v2.982h-2.318v-5.274h1.169c.571-1.168.948-2.522 1.131-4.063.182-1.546.273-3.5.273-5.86v-1.444zm2.658 2.292c0 4.149-.38 7.174-1.14 9.075h5.25v-9.075h-4.11zm8.801-2.292h3.12l3.224 7.09 2.753-7.09h2.912l-4.666 10.379c-.509 1.125-1.027 1.982-1.555 2.572-.528.584-1.21.876-2.045.876-.824 0-1.468-.053-1.933-.159v-2.05c.396.025.754.038 1.075.038.647 0 1.109-.115 1.385-.345.283-.236.553-.739.811-1.509l-5.081-9.802zm22.095 0v5.814c.465-.038.817-.208 1.056-.513.239-.304.569-1 .99-2.087.553-1.422 1.118-2.329 1.696-2.721.572-.385 1.524-.577 2.856-.577.063 0 .198-.003.406-.01v2.041l-.406-.009c-.565 0-.98.071-1.244.214a1.57 1.57 0 00-.641.634c-.163.285-.405.872-.726 1.761a5.988 5.988 0 01-.556 1.183c-.195.317-.543.615-1.046.894.622.18 1.134.535 1.536 1.063.409.521.855 1.264 1.339 2.226l1.885 3.746h-3.28l-1.659-3.531a2.216 2.216 0 00-.16-.289 62.023 62.023 0 01-.34-.643c-.352-.652-.641-1.068-.867-1.249-.226-.18-.506-.27-.839-.27v5.982h-2.724v-5.982c-.32 0-.597.087-.829.261-.233.174-.522.593-.868 1.258-.194.373-.311.587-.348.643a4.22 4.22 0 00-.161.289l-1.659 3.531h-3.28l1.885-3.746c.465-.925.902-1.658 1.31-2.199a2.95 2.95 0 011.575-1.09c-.503-.279-.855-.574-1.056-.885a6.737 6.737 0 01-.556-1.192c-.314-.87-.553-1.451-.717-1.743a1.534 1.534 0 00-.641-.652c-.264-.143-.697-.214-1.3-.214-.076 0-.195.003-.359.009v-2.041c.208.007.343.01.406.01 1.351 0 2.312.195 2.884.587.566.397 1.122 1.301 1.669 2.711.427 1.093.757 1.792.989 2.097.239.298.591.465 1.056.503v-5.814h2.724zm8.776 13.659v-13.659h10.246v2.31h-7.456v3.029h6.938v2.301h-6.938v3.718h7.72v2.301h-10.51z" fill="#9A092B"/><path fill-rule="evenodd" clip-rule="evenodd" d="M54.748 101.619l-5.203-5.552c-1.101.553-1.733 1.33-3.152 2.108-9.773 4.895-21.44-1.998-21.44-12.883-.157-6.444 3.941-11 8.197-13.107 2.84-1.35 6.05-1.74 9.136-1.112 1.32.208 2.597.62 3.786 1.221 1.42.778 2.366 1.777 3.467 2.223 1.104-1.002 4.73-4.667 5.203-5.888-3.31-2.445-5.518-4.221-10.878-5.333-12.925-2.554-26.957 7.222-26.957 21.996 0 14.328 13.243 24.548 26.8 21.994 3.941-.778 9.459-3.456 11.035-5.667M.047 106.508h8.04V75.603l-8.04-.08v30.985z" fill="#fff"/><path d="M104.916 160.466v.864h1.051v6.269h1.026v-6.283h1.127v-.864h-1.121v-.752c0-.717.189-.901.716-.901.12 0 .268.014.405.026v-.864a7.1 7.1 0 00-.513-.026c-1.456 0-1.634.706-1.634 1.883v.622l-1.057.026zm-3.414.668c1.08 0 1.512.812 1.512 2.975 0 1.678-.292 2.813-1.512 2.813-1.221 0-1.512-1.135-1.512-2.813.009-2.163.428-2.975 1.52-2.975h-.008zm0-.864c-1.78 0-2.575 1.348-2.575 3.723 0 2.92 1.025 3.773 2.575 3.773 1.549 0 2.578-.864 2.578-3.761.008-2.378-.79-3.726-2.57-3.726l-.008-.009zm-12.008.188l2.313 7.25c-.242.815-.539 1.44-1.267 1.44-.26 0-.518-.055-.755-.162v.896c.235.079.481.118.729.118 1.456 0 1.806-1.08 2.21-2.387l2.24-7.161H93.9l-1.59 5.681h-.027l-1.701-5.681-1.087.006zm-2.441 0h-1.025v7.123h1.025v-4.319c0-1.152.606-1.92 1.66-1.92.145.001.29.014.432.04v-.988a2.583 2.583 0 00-.292-.026c-.903 0-1.415.412-1.791 1.253l-.009-1.163zm-3.429-1.933h-1.022v1.933h-.99v.863h.999v5.094c0 1.08.442 1.175 1.063 1.175h1.121v-.864h-.687c-.42 0-.475-.147-.475-.559v-4.851h1.183v-.864h-1.189l-.003-1.927zm-2.939 3.842c0-1.362-.81-2.097-2.173-2.097-1.24 0-2.04.761-2.04 1.99 0 1.132.636 1.598 1.749 2.065.742.308 1.646.48 1.646 1.388 0 .907-.54 1.2-1.375 1.2-.933 0-1.215-.492-1.215-1.414h-.973c0 1.535.583 2.267 2.24 2.267 1.524 0 2.389-.761 2.389-2.12 0-1.307-1.066-1.759-2.133-2.133-.769-.268-1.296-.522-1.296-1.293 0-.642.291-1.094 1.025-1.094.825 0 1.148.4 1.148 1.241h1.008zm-5.896-3.107v-1.282h-1.025v1.282h1.025zm0 1.198h-1.025v7.123h1.025v-7.123zm-6.49 0h-1.025v7.123h1.025v-4.912a1.428 1.428 0 01.396-1.085 1.467 1.467 0 011.075-.45c.836 0 1.08.507 1.08 1.241v5.215h1.026v-5.497c0-1.253-.702-1.814-1.783-1.814a2.156 2.156 0 00-1.015.264 2.114 2.114 0 00-.764.712h-.015v-.797zm-2.913-1.198v-1.282H64.36v1.282h1.025zm0 1.198H64.36v7.123h1.025v-7.123zm-10.065 0h-1.025v7.123h1.025v-4.826c0-1.105.729-1.627 1.457-1.627.85 0 1.107.493 1.107 1.241v5.215h1.025v-4.829c0-1.105.702-1.627 1.471-1.627.874 0 1.078.533 1.078 1.334v5.122h1.025v-5.491c0-1.293-.754-1.814-1.78-1.814a2.251 2.251 0 00-1.086.298c-.33.189-.607.46-.801.785-.256-.801-.918-1.083-1.687-1.083a2.16 2.16 0 00-1.782.976l-.027-.797zm-7.608 3.4h-2.564l1.282-5.105h.026l1.255 5.105zm-4.723 3.723h1.186l.731-2.752h3.062l.769 2.761h1.188l-2.726-9.603h-1.43l-2.78 9.594zm145.675-5.194c0-.827.292-1.253 1.052-1.253.824 0 1.092.288 1.092 1.106 0 .36 0 .72-.268.841a19.8 19.8 0 01-1.281.532c-1.256.481-1.795.936-1.795 2.203s.583 1.958 1.847 1.958a1.819 1.819 0 001.594-1.152h.026c.163.962.486 1.04 1.107 1.04a1.04 1.04 0 00.416-.078v-.749c-.074.017-.15.026-.227.026-.271 0-.393-.239-.393-.575v-4.193c0-.959-.565-1.814-2.01-1.814-1.349 0-2.077.642-2.077 2.108h.917zm2.144 1.321v1.728c0 .734-.256 1.44-1.319 1.44-.691 0-.959-.467-.959-1.092-.011-1.382 1.215-1.462 2.278-2.076zm-4.829-4.44v-1.281h-1.026v1.281h1.026zm0 1.198h-1.026v7.124h1.026v-7.124zm-2.765 1.909c0-1.362-.81-2.096-2.173-2.096-1.241 0-2.039.76-2.039 1.99 0 1.131.635 1.598 1.748 2.064.743.308 1.646.481 1.646 1.388 0 .907-.539 1.201-1.375 1.201-.933 0-1.215-.493-1.215-1.414h-.973c0 1.535.583 2.266 2.24 2.266 1.526 0 2.389-.76 2.389-2.119 0-1.307-1.066-1.759-2.133-2.134-.769-.268-1.293-.521-1.293-1.293 0-.642.291-1.094 1.025-1.094.822 0 1.145.4 1.145 1.241h1.008zm-9.065 0c0-.826.291-1.252 1.051-1.252.822 0 1.093.288 1.093 1.105 0 .36 0 .72-.271.841-.108.055-.807.36-1.282.533-1.252.481-1.794.936-1.794 2.203s.582 1.958 1.849 1.958c.35-.02.686-.139.968-.343.283-.205.499-.486.623-.809h.029c.16.962.484 1.039 1.104 1.039a1.04 1.04 0 00.42-.077v-.749a1.118 1.118 0 01-.23.026c-.268 0-.391-.239-.391-.576v-4.181c0-.959-.568-1.814-2.01-1.814-1.349 0-2.077.642-2.077 2.108l.918-.012zm2.144 1.322v1.728c0 .734-.257 1.439-1.323 1.439-.687 0-.958-.466-.958-1.091 0-1.371 1.215-1.451 2.272-2.065l.009-.011zm-6.118-3.242h-1.025v7.123h1.017v-4.319c0-1.152.608-1.92 1.66-1.92.145.001.289.014.431.04v-.988a2.833 2.833 0 00-.291-.026c-.903 0-1.416.412-1.794 1.253l.002-1.163zm-7.405 0v5.494c0 1.255.662 1.828 1.748 1.828a1.9 1.9 0 001.702-1.134h.026v.935h1.008v-7.112h-1.026v4.576c0 1.48-.81 1.894-1.523 1.894-.714 0-.918-.334-.918-.936v-5.534l-1.017-.011zm-6.464-2.48v9.603h4.886v-.961h-3.814v-3.574h3.549v-.962h-3.549v-3.135h3.787v-.959l-4.859-.012zm-8.768 2.48h-1.025v7.123h1.025v-4.909a1.434 1.434 0 01.886-1.421c.185-.078.384-.116.585-.114.836 0 1.078.507 1.078 1.241v5.215h1.026v-5.497c0-1.253-.703-1.814-1.78-1.814a2.15 2.15 0 00-1.783.976l-.012-.8zm-5.223.668c1.081 0 1.512.812 1.512 2.974 0 1.679-.291 2.813-1.512 2.813-1.22 0-1.509-1.134-1.509-2.813-.009-2.151.408-2.963 1.5-2.963l.009-.011zm0-.864c-1.78 0-2.575 1.347-2.575 3.723 0 2.92 1.025 3.772 2.575 3.772 1.55 0 2.578-.864 2.578-3.761-.009-2.366-.804-3.714-2.587-3.714l.009-.02zm-4.192-.991v-1.281h-1.025v1.281h1.025zm0 1.198h-1.025v7.124h1.025v-7.124zm-2.764 1.909c0-1.362-.81-2.096-2.173-2.096-1.241 0-2.039.76-2.039 1.99 0 1.131.632 1.598 1.747 2.064.743.308 1.646.481 1.646 1.388 0 .907-.539 1.201-1.378 1.201-.929 0-1.211-.493-1.211-1.414h-.973c0 1.535.582 2.266 2.24 2.266 1.523 0 2.388-.76 2.388-2.119 0-1.307-1.066-1.759-2.132-2.134-.769-.268-1.296-.521-1.296-1.293 0-.642.291-1.094 1.025-1.094.825 0 1.148.4 1.148 1.241h1.008zm-5.748 0c0-1.362-.809-2.096-2.173-2.096-1.241 0-2.039.76-2.039 1.99 0 1.131.632 1.598 1.748 2.064.743.308 1.646.481 1.646 1.388 0 .907-.539 1.201-1.378 1.201-.929 0-1.212-.493-1.212-1.414h-.973c0 1.535.583 2.266 2.24 2.266 1.524 0 2.389-.76 2.389-2.119 0-1.307-1.066-1.759-2.132-2.134-.769-.268-1.297-.521-1.297-1.293 0-.642.292-1.094 1.026-1.094.824 0 1.148.4 1.148 1.241h1.007zm-5.907-3.107v-1.281h-1.02v1.281h1.02zm0 1.198h-1.02v7.124h1.026l-.006-7.124zm-11.09-2.479v9.603h1.078v-7.884c0-.412-.041-.731-.041-1.238h.029c.12.518.201.838.291 1.172l2.039 7.95h1.282l2.039-7.844c.094-.386.187-.72.324-1.278h.04c0 .36-.04.8-.04 1.212v7.91h1.078v-9.603h-1.903l-1.928 7.487c-.115.473-.196.954-.242 1.439h-.029a9.648 9.648 0 00-.201-1.414l-1.902-7.486-1.914-.026z" fill="#fff"/></svg>