<svg width="82" height="62" viewBox="0 0 82 62" fill="none" xmlns="http://www.w3.org/2000/svg"><path fill="#fff" d="M0 0h82v62H0z"/><path fill-rule="evenodd" clip-rule="evenodd" d="M33.36 23.52c-2.202-1.339-5.04-5.573-7.03-7.95-.314.372-.314.595-.314 1.485-.104.67-.21 1.412-.104 2.007.418 1.708 5.665 5.422 6.084 6.017-2.728-.891-5.35-3.64-6.084-3.938l.209 3.274c.63.221 2.52.963 3.042 1.485l-2.412.52c-.105 3.566 7.449 6.389 7.868 10.325-2.623.15-3.461.075-5.77 2.601 2.728-.67 1.357-1.71 5.246-1.19l-1.049.743c-4.093 1.859-9.13 4.383-13.43 4.903-1.163.148-4.092 1.412-4.616 2.155 6.61.52 10.276-3.79 17.837-6.018 3.148-.891 4.197-.371 7.346-.668 5.56-.372 11.226-4.83 18.256-5.719 1.467-.223 6.818-.223 7.561-.52-.944-.372-2.203-.372-3.358-.67-1.572-.297-.838-1.337-3.356-.668-2.728.668-3.672 1.263-6.82 1.411-7.24.372-13.535-.223-13.85-6.834-.104-1.635-.63-1.635-1.47-2.675-2.622-3.639-4.406-5.719-6.608-9.878L27.81 8.22c-.526.817-1.164 3.491-1.26 4.531-.21 2.452 6.295 9.436 6.82 10.772" fill="#9A092B"/><path fill-rule="evenodd" clip-rule="evenodd" d="M44.693 32.062c-2.31-.892-4.093-2.527-4.302-5.35-.21-4.236.944-.741-2.521-7.125-1.258-2.154-2.098-4.16-3.149-6.462-.523-1.188-2.307-6.686-2.52-7.125-.63.668-1.357 2.748-1.679 3.64-.63 1.783.21 2.747.944 4.01a65.59 65.59 0 006.505 9.583c1.679 2.081.944.891 1.47 3.862.209 1.487.944 2.823 1.783 3.492.524.446 2.728 1.783 3.463 1.486" fill="#9A092B"/></svg>