<svg width="20" height="20" viewBox="0 0 20 20" fill="none" xmlns="http://www.w3.org/2000/svg"><path d="M14.683 8.96a.642.642 0 01-.641-.642c0-.308-.309-.95-.825-1.508-.509-.542-1.067-.858-1.534-.858a.642.642 0 010-1.284c.834 0 1.709.45 2.475 1.259.717.758 1.175 1.7 1.175 2.383a.65.65 0 01-.65.65zm3.009-.002a.642.642 0 01-.642-.641 5.365 5.365 0 00-5.358-5.359.642.642 0 01-.642-.641c0-.35.283-.65.633-.65a6.658 6.658 0 016.65 6.65c0 .35-.291.641-.641.641zm-8.484 3.5L7.667 14a.837.837 0 01-1.175.008c-.092-.091-.184-.175-.275-.266a23.67 23.67 0 01-2.325-2.725c-.684-.95-1.234-1.9-1.634-2.842-.391-.95-.591-1.858-.591-2.725 0-.567.1-1.108.3-1.608.2-.509.516-.975.958-1.392.533-.525 1.117-.783 1.733-.783.234 0 .467.05.675.15.217.1.409.25.559.466l1.933 2.725c.15.209.258.4.333.584.075.175.117.35.117.508 0 .2-.058.4-.175.592a2.834 2.834 0 01-.467.591L7 7.942a.446.446 0 00-.133.333c0 .067.008.125.025.192.025.066.05.116.066.166.15.275.409.634.775 1.067a28.5 28.5 0 001.209 1.317c.083.083.175.166.258.25a.835.835 0 01.008 1.191zm9.1 2.817a2.116 2.116 0 01-.208.908 3.44 3.44 0 01-.567.85c-.408.45-.858.775-1.366.984-.009 0-.017.008-.025.008a4.21 4.21 0 01-1.6.308c-.85 0-1.759-.2-2.717-.608a14.645 14.645 0 01-2.867-1.65c-.325-.242-.65-.483-.958-.742l2.725-2.725c.233.175.442.309.617.4.041.017.091.042.15.067a.575.575 0 00.208.033c.142 0 .25-.05.342-.141l.633-.625c.208-.209.408-.367.6-.467a1.11 1.11 0 01.592-.175c.158 0 .325.033.508.108s.375.184.583.325l2.759 1.959c.216.15.366.325.458.533.083.208.133.417.133.65z" fill="#fff"/></svg>