<svg width="60" height="60" viewBox="0 0 60 60" fill="none" xmlns="http://www.w3.org/2000/svg"><circle cx="30" cy="30" r="30" fill="#9A092B"/><g clip-path="url(#clip0_79_16)" fill="#fff"><path d="M44.063 22.734a4.164 4.164 0 00-1.721.426c-1.158.579-1.795 1.676-1.795 3.09v3.459l-1.128 1.127c-.222-1.471-1.474-2.322-1.529-2.359a.703.703 0 00-.887.088l-5.625 5.625a.703.703 0 00-.206.498v9.374a.703.703 0 001.406 0V34.98l4.947-4.947c.228.261.472.642.515 1.105.06.655-.288 1.367-1.037 2.116l-2.812 2.812a.703.703 0 00.994.995l2.813-2.813 3.75-3.75a.703.703 0 00.205-.497v-3.75c0-.875.321-1.468.982-1.814a2.51 2.51 0 01.424-.172v7.356l-4.524 5.43a.703.703 0 00-.163.45v6.563a.703.703 0 001.406 0v-6.308l4.525-5.43a.703.703 0 00.163-.45v-8.438a.703.703 0 00-.703-.703zm-21.066 5.831a.704.704 0 00-.887-.088c-.055.037-1.307.887-1.53 2.36l-1.127-1.128V26.25c0-1.414-.637-2.511-1.795-3.09a4.164 4.164 0 00-1.72-.426.703.703 0 00-.704.703v8.438c0 .164.058.324.163.45l4.525 5.43v6.307a.703.703 0 001.406 0V37.5a.703.703 0 00-.163-.45l-4.524-5.43v-7.356c.133.04.263.092.388.154.685.342 1.018.941 1.018 1.832V30c0 .186.074.365.206.497l3.75 3.75 2.812 2.813a.703.703 0 00.995-.995l-2.813-2.812c-.749-.75-1.098-1.46-1.037-2.115.043-.465.288-.845.516-1.106l4.946 4.947v9.084a.703.703 0 001.406 0v-9.376a.703.703 0 00-.206-.497l-5.625-5.625zm3.253-7.237h1.64v6.797a.703.703 0 00.704.703h2.812a.703.703 0 00.703-.703v-6.797h1.641a.703.703 0 00.703-.703V18.75a.703.703 0 00-.703-.703h-1.64v-2.11a.703.703 0 00-.704-.703h-2.812a.703.703 0 00-.703.704v2.109H26.25a.703.703 0 00-.703.703v1.875a.703.703 0 00.703.703zm.703-1.875h1.64a.703.703 0 00.704-.703v-2.11h1.406v2.11a.703.703 0 00.703.703h1.64v.469h-1.64a.703.703 0 00-.703.703v6.797h-1.406v-6.797a.703.703 0 00-.703-.703h-1.64v-.469zm9.844.235a.703.703 0 00.703.703h.938a.703.703 0 000-1.407H37.5a.703.703 0 00-.703.703zm-.176-2.578a.7.7 0 00.352-.095l.812-.468a.702.702 0 10-.704-1.218l-.812.468a.703.703 0 00.352 1.313zm-.351 6.468l.811.469a.703.703 0 00.703-1.218l-.811-.469a.703.703 0 10-.703 1.218zM21.563 20.39h.937a.703.703 0 000-1.406h-.938a.703.703 0 000 1.407zm.653-3.843l.812.468a.702.702 0 10.703-1.218l-.812-.468a.703.703 0 00-.703 1.218zm.812 5.813l-.812.469a.704.704 0 10.703 1.218l.812-.47a.704.704 0 10-.703-1.217z"/></g><defs><clipPath id="clip0_79_16"><path fill="#fff" transform="translate(15 15)" d="M0 0h30v30H0z"/></clipPath></defs></svg>