<svg width="60" height="60" viewBox="0 0 60 60" fill="none" xmlns="http://www.w3.org/2000/svg"><circle cx="30" cy="30" r="30" fill="#9A092B"/><g clip-path="url(#clip0_79_30)" fill="#fff"><path d="M38.474 16.25c-2.29 0-3.665 1.47-4.415 2.701-.75-1.232-2.126-2.7-4.416-2.7-3.037 0-5.22 2.525-5.22 5.598 0 3.335 2.587 5.496 6.504 8.766 2.381 1.988 2.58 2.19 3.132 2.661.599-.496.78-.753 3.486-2.835 2.883-2.217 6.204-4.934 6.204-8.592 0-3.036-2.205-5.599-5.275-5.599zm-1.91 12.914a73.628 73.628 0 00-2.502 1.985 214.6 214.6 0 00-2.103-1.77c-3.695-3.086-5.926-4.948-5.926-7.53 0-2.273 1.552-3.988 3.61-3.988 2.23 0 3.237 2.112 3.567 3.02l.193.525h1.312l.193-.525c.33-.908 1.337-3.02 3.566-3.02 2.089 0 3.664 1.715 3.664 3.988 0 3.024-3.206 5.493-5.575 7.315z"/><path d="M30.876 43.638a8.2 8.2 0 006.644-1.831l5.33-4.462a2.423 2.423 0 00.337-3.436 2.412 2.412 0 00-3.362-.353l-3.457 2.816a4.018 4.018 0 01-.757.498 2.42 2.42 0 00-2.389-2.788h-4.5c-.554-.52-1.91-1.611-3.556-1.611-1.649 0-3.041 1.097-3.603 1.611H16.25v8.056h5.573l9.053 1.5zm-11.403-3.11H17.86v-4.835h1.612v4.834zm1.61-4.835h1.158c.77-.808 1.806-1.611 2.925-1.611 1.113 0 2.11.79 2.862 1.611h5.194a.807.807 0 010 1.611h-4.028v1.612h4.597a5.65 5.65 0 003.604-1.302l3.431-2.796a.813.813 0 011.008 1.276l-5.355 4.482a6.588 6.588 0 01-5.34 1.473l-9.183-1.522h-.872v-4.834z"/></g><defs><clipPath id="clip0_79_30"><path fill="#fff" transform="translate(16.25 16.25)" d="M0 0h27.5v27.5H0z"/></clipPath></defs></svg>