<svg width="20" height="20" viewBox="0 0 20 20" fill="none" xmlns="http://www.w3.org/2000/svg"><path d="M15.575 9.608c-.475-.125-1.033-.191-1.7-.191-.925 0-1.267.225-1.742.583a.565.565 0 00-.075.067l-.791.841c-.659.709-1.867.709-2.534 0l-.791-.833A.32.32 0 007.867 10c-.484-.358-.825-.583-1.742-.583-.667 0-1.225.058-1.7.191-1.983.534-1.983 2.109-1.983 3.492v.775c0 2.092 0 4.458 4.458 4.458h6.2c2.958 0 4.458-1.5 4.458-4.458V13.1c0-1.383 0-2.958-1.983-3.492z" fill="#fff"/><path d="M12.325 1.667h-4.65c-3.683 0-3.683 1.958-3.683 3.683v3.083c.033-.016.075-.025.108-.033.583-.158 1.242-.233 2.025-.233 1.283 0 1.892.375 2.492.833.083.058.166.133.241.217l.784.825a.483.483 0 00.358.141c.142 0 .275-.05.35-.133l.8-.842c.067-.066.142-.141.225-.2.617-.466 1.217-.841 2.5-.841.783 0 1.442.075 2.025.233.033.008.075.017.108.033V5.35c0-1.725 0-3.683-3.683-3.683zm-1.033 5.416H8.708a.59.59 0 01-.583-.583c0-.325.267-.583.583-.583h2.584c.316 0 .583.258.583.583a.59.59 0 01-.583.583zm.65-2.325H8.058a.583.583 0 010-1.166h3.884a.583.583 0 010 1.167z" fill="#fff"/></svg>